<?xml version="1.0" encoding="UTF-8"?>
<svg id="Layer_1" data-name="Layer 1" xmlns="http://www.w3.org/2000/svg" viewBox="0 0 31.95 32">
  <defs>
    <style>
      .cls-1 {
        fill: #0095f3;
      }

      .cls-1, .cls-2, .cls-3 {
        stroke-width: 0px;
      }

      .cls-2 {
        fill: #cbcbcb;
      }

      .cls-3 {
        fill: #ffe8e8;
      }
    </style>
  </defs>
  <path class="cls-3" d="M.06,0h31.88v32H.06V0ZM27.18,11.72s-.09.06-.12.09c-.8.8-1.61,1.6-2.4,2.41-.08.08-.13.26-.11.38.15.9.19,1.8.08,2.71-.63,4.81-4.94,8.16-9.76,7.58-4.8-.58-8.26-5.12-7.55-9.9.75-5.06,5.47-8.35,10.49-7.32.21.04.35,0,.49-.15.76-.77,1.53-1.53,2.29-2.3.06-.06.11-.13.17-.21-4.3-1.98-10.6-1.2-14.36,3.85-3.66,4.92-3.02,11.74,1.47,15.96,4.39,4.13,11.25,4.3,15.9.36,4.69-3.97,4.94-9.97,3.4-13.46ZM15.94,18.83c.79-.83,1.57-1.66,2.36-2.46,2.93-2.94,5.86-5.88,8.8-8.81.39-.39.49-.85.3-1.34-.29-.79-.85-1.35-1.63-1.66-.48-.19-.93-.09-1.31.29-3.68,3.69-7.36,7.38-11.04,11.07-.07.07-.13.15-.17.19.88.9,1.74,1.77,2.69,2.73Z"/>
  <path class="cls-2" d="M.06,0c0,10.67,0,21.34,0,32-.02-.08-.06-.17-.06-.25,0-1.27,0-2.54,0-3.81C0,18.72,0,9.5,0,.28c0-.09.04-.19.06-.28Z"/>
  <g>
    <path class="cls-1" d="M27.18,11.72c1.54,3.49,1.28,9.49-3.4,13.46-4.66,3.94-11.52,3.77-15.9-.36-4.49-4.23-5.13-11.04-1.47-15.96,3.75-5.04,10.06-5.83,14.36-3.85-.06.07-.11.15-.17.21-.76.77-1.53,1.53-2.29,2.3-.15.15-.28.2-.49.15-5.02-1.03-9.73,2.26-10.49,7.32-.71,4.78,2.75,9.33,7.55,9.9,4.82.58,9.13-2.76,9.76-7.58.12-.91.08-1.81-.08-2.71-.02-.12.02-.3.11-.38.79-.81,1.6-1.61,2.4-2.41.03-.03.08-.06.12-.09Z"/>
    <path class="cls-1" d="M15.94,18.83c-.95-.96-1.81-1.83-2.69-2.73.03-.04.1-.12.17-.19,3.68-3.69,7.36-7.38,11.04-11.07.38-.38.83-.49,1.31-.29.78.31,1.34.87,1.63,1.66.19.5.09.95-.3,1.34-2.94,2.93-5.87,5.87-8.8,8.81-.8.8-1.57,1.63-2.36,2.46Z"/>
  </g>
</svg>