<?xml version="1.0" encoding="UTF-8"?>
<svg id="Layer_1" data-name="Layer 1" xmlns="http://www.w3.org/2000/svg" viewBox="0 0 31.95 32">
  <defs>
    <style>
      .cls-1 {
        fill: none;
      }

      .cls-1, .cls-2, .cls-3 {
        stroke-width: 0px;
      }

      .cls-2 {
        fill: #299a69;
      }

      .cls-3 {
        fill: #fff;
      }
    </style>
  </defs>
  <rect class="cls-2" x=".69" y=".71" width="30.58" height="30.58" rx="3.92" ry="3.92"/>
  <g>
    <path class="cls-1" d="M15.86,20.44c-.4,0-.73.33-.73.73s.33.73.73.73.73-.33.73-.73-.33-.73-.73-.73Z"/>
    <path class="cls-3" d="M15.86,8.6c-6.88,0-12.48,5.6-12.48,12.48h.01v2.28h5.58v-2.52h-3.07c.13-5.38,4.54-9.72,9.95-9.72s9.96,4.47,9.96,9.96v6.26h2.52v-6.26c0-6.88-5.6-12.48-12.48-12.48Z"/>
    <rect class="cls-3" x="21.45" y="22.1" width="2.52" height="5.25"/>
    <rect class="cls-3" x="17.05" y="24.22" width="2.52" height="3.13"/>
    <path class="cls-3" d="M17.85,21.17c0-.37-.11-.72-.29-1.02,1.07-1.14,3.94-4.22,3.94-4.22.36-.38-.21-.95-.59-.59l-4.27,3.99c-.24-.1-.5-.16-.78-.16-1.1,0-1.99.89-1.99,1.99s.89,1.99,1.99,1.99,1.99-.89,1.99-1.99ZM15.86,21.89c-.4,0-.73-.33-.73-.73s.33-.73.73-.73.73.33.73.73-.33.73-.73.73Z"/>
  </g>
  <circle class="cls-3" cx="4.09" cy="4.2" r="1.13"/>
  <circle class="cls-3" cx="10.67" cy="4.2" r="1.13"/>
  <circle class="cls-3" cx="7.31" cy="4.2" r="1.13"/>
</svg>