<?xml version="1.0" encoding="utf-8"?>
<!-- Generator: Adobe Illustrator 28.3.0, SVG Export Plug-In . SVG Version: 6.00 Build 0)  -->
<svg version="1.1" xmlns="http://www.w3.org/2000/svg" xmlns:xlink="http://www.w3.org/1999/xlink" x="0px" y="0px"
	 viewBox="0 0 180 180" style="enable-background:new 0 0 180 180;" xml:space="preserve">
<style type="text/css">
	.st0{fill:#13111C;}
	.st1{fill:#181623;stroke:#34323F;stroke-miterlimit:10;}
	.st2{fill:#FFFFFF;}
</style>
<g id="Layer_2">
	<rect class="st0" width="180" height="180"/>
</g>
<g id="Layer_3">
</g>
<g id="Layer_4">
	<path class="st1" d="M139,20H41c-11.6,0-21,9.4-21,21V139c0,11.6,9.4,21,21,21H139c11.6,0,21-9.4,21-21V41
		C160,29.4,150.6,20,139,20z"/>
	<g>
		<path class="st2" d="M78,115.5l0.3-36.1h-0.2l-13.2,36.1h-8.6L43.3,79.4h-0.2l0.3,36.1H31.8v-51h17.5l11.6,32.7h0.3l11.1-32.7
			h17.8v51H78z"/>
		<path class="st2" d="M148.2,89.9c0,4.5-0.8,8.3-2.5,11.6c-1.7,3.2-3.8,5.9-6.6,8s-5.8,3.6-9.2,4.6c-3.4,1-6.9,1.5-10.4,1.5h-19
			v-51H119c3.6,0,7.2,0.4,10.7,1.3c3.5,0.8,6.6,2.2,9.4,4.2s4.9,4.5,6.6,7.8C147.3,81,148.2,85.1,148.2,89.9z M135.4,89.9
			c0-2.9-0.5-5.3-1.4-7.2c-0.9-1.9-2.2-3.4-3.7-4.5c-1.6-1.1-3.3-1.9-5.3-2.4c-2-0.5-4-0.7-6.2-0.7h-6.1v29.8h5.8
			c2.2,0,4.3-0.3,6.4-0.8c2-0.5,3.8-1.3,5.4-2.5c1.6-1.2,2.8-2.7,3.7-4.6C134.9,95.1,135.4,92.7,135.4,89.9z"/>
	</g>
</g>
<g id="Layer_1">
</g>
</svg>
